<?xml version="1.0" encoding="utf-8"?>
<!-- Generator: Adobe Illustrator 19.0.0, SVG Export Plug-In . SVG Version: 6.00 Build 0)  -->
<svg version="1.1" id="Layer_1" xmlns="http://www.w3.org/2000/svg" xmlns:xlink="http://www.w3.org/1999/xlink" x="0px" y="0px"
	 viewBox="-109 -10 580 420" style="enable-background:new -109 -10 580 420;" xml:space="preserve">
<style type="text/css">
	.st0{clip-path:url(#SVGID_2_);fill:url(#SVGID_3_);}
</style>
<g>
	<g>
		<defs>
			<path id="SVGID_1_" d="M-93.5,0.6h48.4V49h-48.4V0.6z M407.1,0.6h48.4V49h-48.4V0.6z M357,50.6h48.4V99H357V50.6z M407.1,50.6
				h48.4V99h-48.4V50.6z M-93.5,100.7h48.4v48.4h-48.4V100.7z M-43.5,100.7H4.9v48.4h-48.4V100.7z M6.6,100.7H55v48.4H6.6V100.7z
				 M56.7,100.7h48.4v48.4H56.7V100.7z M106.7,100.7h48.4v48.4h-48.4V100.7z M206.8,100.7h48.4v48.4h-48.4V100.7z M307,100.7h48.4
				v48.4H307V100.7z M357,100.7h48.4v48.4H357V100.7z M407.1,100.7h48.4v48.4h-48.4V100.7z M-93.5,150.8h48.4v48.4h-48.4V150.8z
				 M-43.5,150.8H4.9v48.4h-48.4V150.8z M6.6,150.8H55v48.4H6.6V150.8z M56.7,150.8h48.4v48.4H56.7V150.8z M106.7,150.8h48.4v48.4
				h-48.4V150.8z M156.8,150.8h48.4v48.4h-48.4V150.8z M206.8,150.8h48.4v48.4h-48.4V150.8z M256.9,150.8h48.4v48.4h-48.4V150.8z
				 M307,150.8h48.4v48.4H307V150.8z M357,150.8h48.4v48.4H357V150.8z M407.1,150.8h48.4v48.4h-48.4V150.8z M-93.5,200.8h48.4v48.4
				h-48.4V200.8z M-43.5,200.8H4.9v48.4h-48.4V200.8z M6.6,200.8H55v48.4H6.6V200.8z M56.7,200.8h48.4v48.4H56.7V200.8z
				 M106.7,200.8h48.4v48.4h-48.4V200.8z M156.8,200.8h48.4v48.4h-48.4V200.8z M206.8,200.8h48.4v48.4h-48.4V200.8z M256.9,200.8
				h48.4v48.4h-48.4V200.8z M307,200.8h48.4v48.4H307V200.8z M357,200.8h48.4v48.4H357V200.8z M407.1,200.8h48.4v48.4h-48.4V200.8z
				 M-43.5,250.9H4.9v48.4h-48.4V250.9z M6.6,250.9H55v48.4H6.6V250.9z M56.7,250.9h48.4v48.4H56.7V250.9z M106.7,250.9h48.4v48.4
				h-48.4V250.9z M156.8,250.9h48.4v48.4h-48.4V250.9z M206.8,250.9h48.4v48.4h-48.4V250.9z M256.9,250.9h48.4v48.4h-48.4V250.9z
				 M307,250.9h48.4v48.4H307V250.9z M56.7,301h48.4v48.4H56.7V301z M106.7,301h48.4v48.4h-48.4V301z M156.8,301h48.4v48.4h-48.4
				V301z M206.8,301h48.4v48.4h-48.4V301z M256.9,301h48.4v48.4h-48.4V301z M-93.5,351h48.4v48.4h-48.4V351z M56.7,351h48.4v48.4
				H56.7V351z M307,351h48.4v48.4H307V351z"/>
		</defs>
		<clipPath id="SVGID_2_">
			<use xlink:href="#SVGID_1_"  style="overflow:visible;"/>
		</clipPath>
		
			<linearGradient id="SVGID_3_" gradientUnits="userSpaceOnUse" x1="-95.2" y1="200.25" x2="457.2" y2="200.25" gradientTransform="matrix(1 0 0 -1 0 400)">
			<stop  offset="0" style="stop-color:#5CA3BF"/>
			<stop  offset="1" style="stop-color:#967BBA"/>
		</linearGradient>
		<rect x="-95.2" y="-1.1" class="st0" width="552.4" height="401.7"/>
	</g>
</g>
</svg>
