<?xml version="1.0" encoding="utf-8"?>
<!-- Generator: Adobe Illustrator 19.0.0, SVG Export Plug-In . SVG Version: 6.00 Build 0)  -->
<svg version="1.1" id="Layer_1" xmlns="http://www.w3.org/2000/svg" xmlns:xlink="http://www.w3.org/1999/xlink" x="0px" y="0px"
	 viewBox="981.5 -213.7 580 420" style="enable-background:new 981.5 -213.7 580 420;" xml:space="preserve">
<style type="text/css">
	.st0{clip-path:url(#SVGID_2_);fill:url(#SVGID_3_);}
</style>
<g>
	<defs>
		<path id="SVGID_1_" d="M997-203.1h48.4v48.4H997V-203.1z M1497.6-203.1h48.4v48.4h-48.4V-203.1z M1447.5-153.1h48.4v48.4h-48.4
			V-153.1z M1497.6-153.1h48.4v48.4h-48.4V-153.1z M997-103h48.4v48.4H997V-103z M1047-103h48.4v48.4H1047V-103z M1097.1-103h48.4
			v48.4h-48.4V-103z M1147.2-103h48.4v48.4h-48.4V-103z M1197.2-103h48.4v48.4h-48.4V-103z M1297.3-103h48.4v48.4h-48.4V-103z
			 M1397.5-103h48.4v48.4h-48.4V-103z M1447.5-103h48.4v48.4h-48.4V-103z M1497.6-103h48.4v48.4h-48.4V-103z M997-52.9h48.4v48.4
			H997V-52.9z M1047-52.9h48.4v48.4H1047V-52.9z M1097.1-52.9h48.4v48.4h-48.4V-52.9z M1147.2-52.9h48.4v48.4h-48.4V-52.9z
			 M1197.2-52.9h48.4v48.4h-48.4V-52.9z M1247.3-52.9h48.4v48.4h-48.4V-52.9z M1297.3-52.9h48.4v48.4h-48.4V-52.9z M1347.4-52.9
			h48.4v48.4h-48.4V-52.9z M1397.5-52.9h48.4v48.4h-48.4V-52.9z M1447.5-52.9h48.4v48.4h-48.4V-52.9z M1497.6-52.9h48.4v48.4h-48.4
			V-52.9z M997-2.9h48.4v48.4H997V-2.9z M1047-2.9h48.4v48.4H1047V-2.9z M1097.1-2.9h48.4v48.4h-48.4V-2.9z M1147.2-2.9h48.4v48.4
			h-48.4V-2.9z M1197.2-2.9h48.4v48.4h-48.4V-2.9z M1247.3-2.9h48.4v48.4h-48.4V-2.9z M1297.3-2.9h48.4v48.4h-48.4V-2.9z
			 M1347.4-2.9h48.4v48.4h-48.4V-2.9z M1397.5-2.9h48.4v48.4h-48.4V-2.9z M1447.5-2.9h48.4v48.4h-48.4V-2.9z M1497.6-2.9h48.4v48.4
			h-48.4V-2.9z M1047,47.2h48.4v48.4H1047V47.2z M1097.1,47.2h48.4v48.4h-48.4V47.2z M1147.2,47.2h48.4v48.4h-48.4V47.2z
			 M1197.2,47.2h48.4v48.4h-48.4V47.2z M1247.3,47.2h48.4v48.4h-48.4V47.2z M1297.3,47.2h48.4v48.4h-48.4V47.2z M1347.4,47.2h48.4
			v48.4h-48.4V47.2z M1397.5,47.2h48.4v48.4h-48.4V47.2z M1147.2,97.3h48.4v48.4h-48.4V97.3z M1197.2,97.3h48.4v48.4h-48.4V97.3z
			 M1247.3,97.3h48.4v48.4h-48.4V97.3z M1297.3,97.3h48.4v48.4h-48.4V97.3z M1347.4,97.3h48.4v48.4h-48.4V97.3z M997,147.3h48.4
			v48.4H997V147.3z M1147.2,147.3h48.4v48.4h-48.4V147.3z M1397.5,147.3h48.4v48.4h-48.4V147.3z"/>
	</defs>
	<clipPath id="SVGID_2_">
		<use xlink:href="#SVGID_1_"  style="overflow:visible;"/>
	</clipPath>
	<linearGradient id="SVGID_3_" gradientUnits="userSpaceOnUse" x1="995.295" y1="-3.9173" x2="1547.6729" y2="-3.9173">
		<stop  offset="0" style="stop-color:#5CA3BF"/>
		<stop  offset="1" style="stop-color:#967BBA"/>
	</linearGradient>
	<rect x="995.3" y="-204.8" class="st0" width="552.4" height="401.7"/>
</g>
</svg>
